<svg xmlns="http://www.w3.org/2000/svg" viewBox="0 0 300 300"><defs><style>.cls-1{isolation:isolate;}.cls-2,.cls-3,.cls-5{fill:#272b33;}.cls-2{opacity:0.3;}.cls-4{fill:#ffe;}.cls-5{opacity:0.2;mix-blend-mode:multiply;}.cls-6{fill:#c8f4ab;}.cls-7{fill:#ffa748;}.cls-8{fill:#bf7d36;}</style></defs><g class="cls-1"><g id="OBJECTS"><ellipse class="cls-2" cx="150" cy="267.1" rx="87.93" ry="20.57"/><path class="cls-3" d="M235.68,144.79a2.62,2.62,0,0,1,1.6,3.66c-1.2,2.82-13.93,3.56-13.93,3.56-8.28,8.62-31.61,25.62-41.55,30.62a27.63,27.63,0,0,1-4.74,1.89A257.24,257.24,0,0,1,180.21,213c0,.33,0,.62,0,.82.93,12.15,2,30.32,1.31,41.1l.13,0s17.57,6.62,18.7,8.67.43,3,0,3.39a12.37,12.37,0,0,1-2.23.14h-.28c-8.24.16-34-.14-35.33-.14s-2.56-5.95-2.91-7.81v0c-2.41-6-8.63-24-13.28-37.61-1.19.05-2.4.06-3.64.06s-2.46,0-3.66-.06c-4.51,13.23-10.51,30.58-13,37.09,0,0-1.42,8.35-3,8.35s-37.41.43-37.83,0-1.13-1.32,0-3.39,18.7-8.67,18.7-8.67c-.73-11.24.48-30.5,1.41-42.6v0c.16-2.94.58-8.89,1.45-16.15C100,201.7,93,206.85,88.39,209.93c0,0-2.91,12.41-5.88,13.12a2.62,2.62,0,0,1-3.34-2.19s-2.75,3.91-5,3-2-4.36-2-4.36-4.44,2.59-6.15.48.12-5,.12-5-4.72,1.26-5.56-2.08c-.92-3.64,4.74-7.19,4.74-7.19s-4.53-1.22-2.9-5c1.78-4.11,7.68-4.39,8.42-5.53C79.27,182.34,95.53,163,107.54,155a16.17,16.17,0,0,1,11.68-2.86,28.67,28.67,0,0,1,23.5-11.76c10.66,0,21,5.28,27.05,17.51,11-9.63,29.54-20.27,42-25.7,1.26-.54,2.53-6.3,6.89-7.36,4-.95,4.45,3.72,4.45,3.72s4.47-5,7.91-3.45c3.15,1.4,1.1,5.84,1.1,5.84s3.13-1.36,4.93.71-1.51,6-1.51,6,3.41.28,3.94,2.67S235.68,144.79,235.68,144.79Z"/><path class="cls-4" d="M136.05,177.17c-3.43.4-20.13,2.5-15.78,9.18,1.83,2.8,6.92,3.08,9.86,3.47,3.12.42,6.26.67,9.4.8s3.33-4.67.24-4.79q-2.88-.12-5.76-.39c-1.55-.14-3.1-.31-4.64-.55-1.28-.19-3.1-1-4.34-1-.19,0-.74-.42-.85-.33q-.48,2.25.36,1.38a10,10,0,0,1,1-.52,21.16,21.16,0,0,1,4.63-1.4,65.54,65.54,0,0,1,7-1.2c3.06-.36,2-5-1-4.68Z"/><path class="cls-4" d="M142.41,152.91c-3.81-.3-3.21,12.25-3.07,18.67s.43,14.89,3.51,15.14,3.09-13.44,2.91-16.66S146.45,153.22,142.41,152.91Z"/><path class="cls-4" d="M159.17,155.58c.3-3.81-12.25-3.21-18.68-3.07s-14.89.43-15.13,3.51,13.44,3.09,16.66,2.92S158.85,159.62,159.17,155.58Z"/><path class="cls-4" d="M134.8,158.54c-3.42.41-20.13,2.5-15.77,9.18,1.82,2.8,6.92,3.08,9.86,3.48,3.11.41,6.26.67,9.4.79s3.33-4.66.24-4.79c-1.93-.07-3.85-.21-5.76-.39-1.55-.14-3.11-.31-4.65-.54-1.27-.2-3.1-1-4.33-1-.2,0-.75-.43-.86-.33-.32,1.5-.2,2,.36,1.37a9,9,0,0,1,1-.51,20.81,20.81,0,0,1,4.63-1.41,65.51,65.51,0,0,1,7-1.19c3.06-.37,2-5-1-4.69Z"/><path class="cls-4" d="M132.73,167.72c-3.42.41-20.13,2.5-15.77,9.18,1.82,2.8,6.92,3.08,9.86,3.48,3.11.41,6.26.67,9.4.79s3.33-4.67.24-4.79c-1.92-.07-3.85-.21-5.76-.39-1.55-.14-3.11-.31-4.65-.54-1.27-.2-3.09-1-4.33-1-.2,0-.75-.42-.86-.32-.32,1.5-.2,1.95.36,1.37a9,9,0,0,1,1-.51,21,21,0,0,1,4.63-1.41,67.91,67.91,0,0,1,7-1.2c3.05-.36,2-5-1.05-4.68Z"/><path class="cls-4" d="M148.56,182.06a60.29,60.29,0,0,1,6.69,1c1.57.32,3.49,1.39,5,1.48.27,0,.59.5.73.41q.87-1.83.09-1.47a7.43,7.43,0,0,1-.76.35c-2.94.28-6,1.36-8.93,1.71-1.83.22-3.66.4-5.5.51-3,.19-3.32,5-.24,4.79s6.26-.5,9.37-1,8.32-.83,10.12-3.76c4.2-6.82-12.94-8.52-16.36-8.85-3.07-.29-3.3,4.5-.24,4.79Z"/><path class="cls-4" d="M149.39,163.41a60.29,60.29,0,0,1,6.69,1c1.57.33,3.49,1.39,5,1.48.27,0,.59.5.73.41q.87-1.83.09-1.47a7.43,7.43,0,0,1-.76.35c-2.94.28-5.95,1.36-8.93,1.71-1.83.22-3.66.4-5.5.51-3,.19-3.32,5-.24,4.79s6.26-.5,9.37-.95,8.32-.84,10.12-3.77c4.2-6.82-12.94-8.52-16.36-8.85-3.07-.29-3.3,4.5-.24,4.79Z"/><path class="cls-4" d="M151.67,172.54a62.56,62.56,0,0,1,6.68,1c1.57.33,3.49,1.39,5,1.48.28,0,.6.5.74.41.57-1.22.6-1.71.08-1.47a7.43,7.43,0,0,1-.76.35c-2.93.28-5.95,1.36-8.93,1.71-1.83.22-3.66.4-5.5.52-3,.18-3.31,5-.23,4.78s6.26-.5,9.36-.95,8.33-.84,10.12-3.76c4.2-6.83-12.93-8.53-16.36-8.85-3.07-.3-3.3,4.49-.23,4.78Z"/><path class="cls-4" d="M156.68,190.66c-7.43.06-9.62,3.89-13.12,3.92-4.13,0-11.17-6.69-19.92-2.18-5.94,3-5.83,15.22.14,18.11,8.82,4.28,16.92-2.88,19.89-2.9s8.42,6.49,17.62,3.46C168.94,208.54,167.48,190.58,156.68,190.66ZM130,206.46a4.7,4.7,0,0,1-4.65-4.4c-.21-2.67,1.26-5.57,4.57-5.59,2.91,0,4.48,2.53,4.5,5.25A4.63,4.63,0,0,1,130,206.46Zm24.78-.2a4.69,4.69,0,0,1-4.65-4.4c-.21-2.66,1.27-5.56,4.57-5.59,2.92,0,4.49,2.54,4.51,5.26A4.62,4.62,0,0,1,154.75,206.26Z"/><path class="cls-4" d="M208.31,141.68c-3.14-2.73-3.65,4-5.9,5.32-2.48,1.42-24.46,11.89-26.07,11.8s-5.37-3.09-6.46-.59,2.61,4.23,3.07,5.42-1.36,4.53,1.24,5.9c3.19,1.67,4-5.2,4.45-5.37s25.3-11.73,26.52-12.21,7.46,3,7.64-.88c.15-3.33-3-3.09-3.74-4.32S210.08,143.2,208.31,141.68Z"/><path class="cls-4" d="M88.46,200c3.91,1.4,2-5.08,3.59-7.09,1.79-2.22,18.52-19.91,20.06-20.41s6.12.95,6.23-1.78-4-3-4.82-4-.34-5-3.28-5-1.88,6.3-2.21,6.61-19.37,20.06-20.34,21-8-.06-6.81,3.57c1.07,3.17,3.92,1.81,5.05,2.69S86.26,199.23,88.46,200Z"/><path class="cls-4" d="M119.75,256.2c4.08-.83-1-5.35-.62-7.92.39-2.83,5.48-26.64,6.53-27.87s5.73-2.36,4.4-4.75-4.94-.51-6.17-.87-2.92-4.14-5.42-2.61,1.66,6.36,1.54,6.79-6.12,27.21-6.49,28.47-6.88,4.12-4,6.59c2.55,2.15,4.28-.49,5.71-.33S117.47,256.67,119.75,256.2Z"/><path class="cls-4" d="M176.59,253.86c3.22-2.63-3.34-4.29-4.23-6.73-1-2.68-7.55-26.12-7.19-27.7s4-4.76,1.69-6.26-4.62,1.85-5.87,2.1-4.51-2.3-6,.22,4.44,4.86,4.53,5.3,7.24,26.93,7.5,28.21-4.17,6.85-.43,7.68c3.26.71,3.56-2.43,4.9-3S174.79,255.34,176.59,253.86Z"/><path class="cls-4" d="M83.5,198c3.18,1.77,1.49,10.58-2.35,11.77-2.74.84-7.55-2.1-8-5.14S80.69,196.44,83.5,198Z"/><path class="cls-4" d="M66.55,201.88c.71,2.43,8.59.19,7.87-2.28S65.72,199,66.55,201.88Z"/><path class="cls-4" d="M65,211.44c1.45,2.24,9.38-2.85,7.9-5.13S63.26,208.82,65,211.44Z"/><path class="cls-4" d="M69.52,216.66c2.18,1.54,7.65-6.13,5.43-7.7S67,214.85,69.52,216.66Z"/><path class="cls-4" d="M75.27,219.43c2.52.89,5.7-8,3.14-8.88S72.32,218.39,75.27,219.43Z"/><path class="cls-4" d="M81.74,218.93c2.53.23,3.39-8.69.81-8.93S78.77,218.67,81.74,218.93Z"/><path class="cls-4" d="M213.54,145.83c1.28,3.41,10.24,3,12-.57,1.25-2.59-.95-7.78-3.89-8.63S212.41,142.82,213.54,145.83Z"/><path class="cls-4" d="M219.89,129.65c2.3,1.06-1.09,8.52-3.42,7.44S217.2,128.41,219.89,129.65Z"/><path class="cls-4" d="M229.58,129.5c2,1.77-4.21,8.85-6.24,7.05S227.24,127.42,229.58,129.5Z"/><path class="cls-4" d="M234.06,134.78c1.2,2.39-7.19,6.66-8.41,4.23S232.66,132,234.06,134.78Z"/><path class="cls-4" d="M236,140.89c.5,2.62-8.74,4.44-9.25,1.77S235.36,137.81,236,140.89Z"/><path class="cls-4" d="M234.5,147.21c-.15,2.53-9.11,2-8.95-.53S234.67,144.23,234.5,147.21Z"/><path class="cls-4" d="M118.16,160.73c-1.32-1.07-4.86,1.21-4.71,3.09a3.49,3.49,0,0,0,3.63,2.56C118.47,166,119.34,161.68,118.16,160.73Z"/><path class="cls-4" d="M167.07,162.35c-1.44.93-.37,5,1.47,5.44a3.49,3.49,0,0,0,3.56-2.65C172.2,163.7,168.34,161.53,167.07,162.35Z"/><path class="cls-4" d="M119.73,262.84c-.64.92-22.91.91-23,0-.16-2.55,13.22-6.46,18.49-6.06S120.62,261.55,119.73,262.84Z"/><path class="cls-4" d="M92.06,262.46c0,1.45,4.23,1.42,4.21,0S92,260.76,92.06,262.46Z"/><path class="cls-4" d="M168.18,262.84c.64.92,22.9.91,23,0,.17-2.55-13.22-6.46-18.49-6.06S167.29,261.55,168.18,262.84Z"/><path class="cls-4" d="M195.84,262.46c0,1.45-4.22,1.42-4.2,0S195.87,260.76,195.84,262.46Z"/><path class="cls-5" d="M139.06,221.48c-4.51,13.23-10.51,30.58-13,37.09,0,0-1.42,8.35-3,8.35s-37.41.43-37.83,0-1.13-1.32,0-3.39,18.7-8.67,18.7-8.67c-.73-11.24.48-30.5,1.41-42.6v0c.16-2.94.58-8.89,1.45-16.15C100,201.7,93,206.85,88.39,209.93c0,0-2.91,12.41-5.88,13.12a2.62,2.62,0,0,1-3.34-2.19s-2.75,3.91-5,3-2-4.36-2-4.36-4.44,2.59-6.15.48.12-5,.12-5-4.72,1.26-5.56-2.08c-.92-3.64,4.74-7.19,4.74-7.19s-4.53-1.22-2.9-5c1.78-4.11,7.68-4.39,8.42-5.53C79.27,182.34,95.53,163,107.54,155a16.17,16.17,0,0,1,11.68-2.86,28.67,28.67,0,0,1,23.5-11.76C117.08,166.39,102.69,226.38,139.06,221.48Z"/><path class="cls-5" d="M197.88,267.06c-8.24.16-34-.14-35.33-.14s-2.56-5.95-2.91-7.81v0c-2.41-6-8.63-24-13.28-37.61-1.19.05-2.4.06-3.64.06s-2.46,0-3.66-.06l18.71-2.54s1.3,48,39.74,48.12Z"/><path class="cls-6" d="M143.36,40.76H129.83s-2.48-12.21-13.21-19c0,0,8.59-10.24,24.6-9.41C141.22,12.37,144.68,20.62,143.36,40.76Z"/><path class="cls-7" d="M205.19,139.43c-4.13,8.89-17.37,13.95-31,16.81l-.08,0A204.62,204.62,0,0,1,137.6,160s-58-.07-67.59-20.6S67.23,87.86,80,64.83c12-21.66,36.94-27.1,54.42-27.66,1.11-.05,2.18-.06,3.23-.06,17.49,0,44.93,4.69,57.65,27.72S214.73,118.89,205.19,139.43Z"/><path class="cls-8" d="M178.61,82.6c-13.77,2.58-16.92,18.67-14.07,31.46,3.14,14.08,14.37,19.18,23.06,17.53s16.48-13.78,13.79-27.72S190.6,80.35,178.61,82.6Z"/><path class="cls-3" d="M176.88,82.56c-12.19,2.29-15,16.52-12.45,27.83,2.77,12.46,12.71,17,20.4,15.51s14.58-12.19,12.19-24.52S187.48,80.58,176.88,82.56Z"/><path class="cls-8" d="M149.32,104.22c-1.86,0-5.37,10.83-4.45,12s9.78,1,10.71.11S151.31,104.22,149.32,104.22Z"/><path class="cls-3" d="M149.32,104.22c-1.86,0-5.92,9.19-5,10.38s8.48.93,9.41,0S151.31,104.22,149.32,104.22Z"/><path class="cls-8" d="M153.06,123.14s-1.05,15.7-11,15c-10.5-.77-6.22-16.14-6.22-16.14s.77.16,2.13.58c.21.07.48.33.72.4a6.69,6.69,0,0,0-.71,2.79,8.58,8.58,0,0,0,2.93.77c.25,0,.43-2.4.76-3.12a3.74,3.74,0,0,1,1,.49,6,6,0,0,0-.2,2.43c.21.29,3.21.48,3.49.42a6.85,6.85,0,0,0,.37-2.39c2,.12,3-.82,4.74-1.31C151.09,123.05,152.1,123.14,153.06,123.14Z"/><path class="cls-3" d="M151.09,123.05s-2.05,12.72-10.34,12.13c-8.73-.63-5.16-13.42-5.16-13.42a24.13,24.13,0,0,0,2.37.81,5.42,5.42,0,0,0-.59,2.32,8.17,8.17,0,0,0,2.59.66,6.88,6.88,0,0,0,.6-2.33c.35.07.72.15,1.1.19a5.13,5.13,0,0,0-.16,2,7.38,7.38,0,0,0,2.53.29,5.72,5.72,0,0,0,.3-2A19.4,19.4,0,0,0,151.09,123.05Z"/><path class="cls-8" d="M93.73,137.13c2.26,5.16,5,10.05,9.06,13.72s9.11,6,14.42,7.91a30.08,30.08,0,0,1-8.23-2.13A24.34,24.34,0,0,1,96.5,145.17,29.82,29.82,0,0,1,93.73,137.13Z"/><path class="cls-8" d="M125,37.92a96.88,96.88,0,0,0-8.72,8.34,113.15,113.15,0,0,0-14.36,19.18c-2.1,3.42-3.83,7-5.65,10.67.63-1.92,1.25-3.86,2-5.74s1.6-3.73,2.56-5.52a69.65,69.65,0,0,1,6.47-10.34,70.73,70.73,0,0,1,8.09-9.11c1.48-1.4,3-2.73,4.59-4A48.88,48.88,0,0,1,125,37.92Z"/><path class="cls-8" d="M192.59,135.2a26.45,26.45,0,0,1-1.27,6.27,25.32,25.32,0,0,1-2.81,5.81,21.16,21.16,0,0,1-4.37,4.78,20.42,20.42,0,0,1-5.57,3.17,52.36,52.36,0,0,0,4.74-4.09,30.71,30.71,0,0,0,3.87-4.74,39.81,39.81,0,0,0,3-5.39C191,139.13,191.8,137.18,192.59,135.2Z"/><path class="cls-8" d="M155.64,38.8a58.13,58.13,0,0,1,5,3.49c1.56,1.29,3.09,2.61,4.58,4a82.85,82.85,0,0,1,8.25,8.91,77.8,77.8,0,0,1,6.87,10c1,1.74,2,3.54,2.86,5.35s1.63,3.7,2.37,5.57c-2-3.48-4-7-6.27-10.27s-4.57-6.56-7.07-9.67-5.14-6.11-7.87-9S158.68,41.45,155.64,38.8Z"/><path class="cls-8" d="M148,143.1A46.42,46.42,0,0,1,145.83,160a40.1,40.1,0,0,1,.28-8.57A41.07,41.07,0,0,1,148,143.1Z"/><path class="cls-8" d="M140.53,37.11a55.66,55.66,0,0,1,3.4,8.72c.92,3,1.65,6,2.29,9.07s1.12,6.14,1.48,9.24a91,91,0,0,1,.62,9.33c-.67-3-1.27-6.09-1.85-9.14s-1.17-6.08-1.8-9.11-1.26-6-1.94-9.07S141.36,40.11,140.53,37.11Z"/><path class="cls-5" d="M174.07,156.26A204.62,204.62,0,0,1,137.6,160s-58-.07-67.59-20.6S67.23,87.86,80,64.83c12-21.66,36.94-27.1,54.42-27.66-1,.29-32.63,10-40.65,43.86C85.58,115.37,116.75,163.69,174.07,156.26Z"/><path class="cls-8" d="M101.21,81.64c16.33-3.48,26.71,10.42,25,28.26s-11.65,25.67-25.72,24.28c-15.24-1.51-20.59-16.25-19.54-26.8C82.12,95.07,88.09,84.45,101.21,81.64Z"/><path class="cls-3" d="M99.46,82.68c14.7-3.13,24,9.38,22.45,25.44S111.43,131.22,98.77,130c-13.72-1.36-18.53-14.62-17.59-24.12C82.28,94.76,87.66,85.2,99.46,82.68Z"/></g></g></svg>